<svg xmlns="http://www.w3.org/2000/svg" fill="none" viewBox="0 0 830 64">

  <metadata>
    Copyright 2022–Today (c) Giovanni Tramutola (https://github.com/giotramu). All rights reserved.
  </metadata>

  <style>
    :root {
      --foreground: #313133;
      --hand: #FFD8BF;
      --wave: #4169E1;
    }

    @media (prefers-color-scheme: dark) {
      :root {
        --foreground: #F8F8FF;
      }
    }

    .shake {
      animation: shake 0.4s linear;
      animation-delay: 8ms;
      animation-iteration-count: 4;
      will-change: transform;
    }

    @keyframes shake {
      0%,
      100% {
        transform: translate(0, 0) rotate(0);
        transform-origin: bottom right;
      }

      20% {
        transform: translate(0.2rem, 0.1rem) rotate(0.3deg);
      }

      80% {
        transform: translate(-0.2rem, -0.1rem) rotate(-0.3deg);
      }
    }
  </style>

  <g id="heading" fill="var(--foreground)">
    <path d="M18.1725 48.572C20.9885 48.572 23.5845 47.912 25.9605 46.548C28.3365 45.184 30.1845 43.336 31.4605 41.048L27.8965 39.024C26.1365 42.368 22.3965 44.568 18.1725 44.568C14.6085 44.568 11.7045 43.424 9.46049 41.136C7.21648 38.848 6.11648 35.988 6.11648 32.6C6.11648 29.168 7.21648 26.308 9.46049 24.02C11.7045 21.732 14.6085 20.588 18.1725 20.588C22.3965 20.588 26.1365 22.788 27.8965 26.176L31.4605 24.108C28.8205 19.532 23.8045 16.628 18.1725 16.628C13.5085 16.628 9.63648 18.168 6.60048 21.248C3.56448 24.328 2.06848 28.112 2.06848 32.6C2.06848 37.088 3.56448 40.872 6.60048 43.952C9.63648 47.032 13.5085 48.572 18.1725 48.572ZM37.7638 21.996C39.1718 21.996 40.3158 20.852 40.3158 19.444C40.3158 18.036 39.1718 16.848 37.7638 16.848C36.3118 16.848 35.1678 18.036 35.1678 19.444C35.1678 20.852 36.3118 21.996 37.7638 21.996ZM39.6558 48V26H35.8278V48H39.6558ZM63.7118 29.784C61.8198 26.88 59.0478 25.428 55.3958 25.428C52.3158 25.428 49.6758 26.572 47.5198 28.816C45.3638 31.06 44.2638 33.788 44.2638 37C44.2638 40.212 45.3638 42.984 47.5198 45.228C49.6758 47.472 52.3158 48.572 55.3958 48.572C59.0478 48.572 61.8198 47.12 63.7118 44.216V48H67.5398V26H63.7118V29.784ZM55.8798 44.876C53.6798 44.876 51.8318 44.128 50.3358 42.632C48.8398 41.092 48.0918 39.244 48.0918 37C48.0918 34.756 48.8398 32.908 50.3358 31.412C51.8318 29.872 53.6798 29.124 55.8798 29.124C58.1238 29.124 59.9718 29.872 61.4678 31.412C62.9638 32.908 63.7118 34.756 63.7118 37C63.7118 39.244 62.9638 41.092 61.4678 42.632C59.9718 44.128 58.1238 44.876 55.8798 44.876ZM91.9075 45.228C94.1515 42.984 95.2955 40.256 95.2955 37C95.2955 33.744 94.1515 31.016 91.9075 28.772C89.6635 26.528 86.8915 25.428 83.6795 25.428C80.4675 25.428 77.6955 26.528 75.4515 28.772C73.2075 31.016 72.1075 33.744 72.1075 37C72.1075 40.256 73.2075 42.984 75.4515 45.228C77.6955 47.472 80.4675 48.572 83.6795 48.572C86.8915 48.572 89.6635 47.472 91.9075 45.228ZM83.6795 44.832C81.5235 44.832 79.6755 44.084 78.1795 42.588C76.6835 41.092 75.9355 39.244 75.9355 37C75.9355 34.756 76.6835 32.908 78.1795 31.412C79.6755 29.916 81.5235 29.168 83.6795 29.168C85.8795 29.168 87.7275 29.916 89.2235 31.412C90.7195 32.908 91.4675 34.756 91.4675 37C91.4675 39.244 90.7195 41.092 89.2235 42.588C87.7275 44.084 85.8795 44.832 83.6795 44.832ZM103.724 38.98L104.56 26V17.2H99.9403V26L100.776 38.98H103.724ZM102.228 48.484C103.856 48.484 105.088 47.208 105.088 45.624C105.088 44.04 103.856 42.764 102.228 42.764C100.644 42.764 99.3683 44.04 99.3683 45.624C99.3683 47.208 100.644 48.484 102.228 48.484Z" />
    <path d="M186.044 31.456V36.824H195.372C194.272 40.476 191.104 42.676 186.396 42.676C183.228 42.676 180.676 41.752 178.74 39.86C176.848 37.968 175.88 35.548 175.88 32.644C175.88 29.696 176.804 27.276 178.696 25.384C180.588 23.448 183.008 22.48 185.956 22.48C189.608 22.48 192.776 24.24 194.228 26.748L199.42 23.756C196.78 19.4 191.764 16.584 186 16.584C181.424 16.584 177.596 18.124 174.472 21.248C171.392 24.372 169.852 28.156 169.852 32.644C169.852 37.088 171.392 40.872 174.516 43.996C177.64 47.076 181.6 48.616 186.352 48.616C190.796 48.616 194.448 47.252 197.264 44.524C200.08 41.796 201.488 38.232 201.488 33.832V31.456H186.044ZM208.359 23.36C210.295 23.36 211.879 21.776 211.879 19.884C211.879 17.992 210.295 16.364 208.359 16.364C206.467 16.364 204.883 17.992 204.883 19.884C204.883 21.776 206.467 23.36 208.359 23.36ZM211.219 48V26H205.543V48H211.219ZM235.158 45.272C237.402 43.028 238.546 40.256 238.546 37C238.546 33.744 237.402 31.016 235.158 28.772C232.914 26.528 230.142 25.384 226.886 25.384C223.63 25.384 220.858 26.528 218.614 28.772C216.37 31.016 215.27 33.744 215.27 37C215.27 40.256 216.37 43.028 218.614 45.272C220.858 47.516 223.63 48.616 226.886 48.616C230.142 48.616 232.914 47.516 235.158 45.272ZM222.618 41.356C221.518 40.212 220.946 38.76 220.946 37C220.946 35.24 221.518 33.788 222.618 32.644C223.762 31.5 225.17 30.928 226.886 30.928C228.602 30.928 230.01 31.5 231.154 32.644C232.298 33.788 232.87 35.24 232.87 37C232.87 38.76 232.298 40.212 231.154 41.356C230.01 42.5 228.602 43.072 226.886 43.072C225.17 43.072 223.762 42.5 222.618 41.356ZM250.788 41.4L245.464 26H239.216L247.576 48H254.044L262.404 26H256.156L250.788 41.4ZM281.002 28.596C279.286 26.44 276.91 25.384 273.83 25.384C270.882 25.384 268.374 26.528 266.262 28.772C264.194 31.016 263.138 33.744 263.138 37C263.138 40.256 264.194 43.028 266.262 45.272C268.374 47.516 270.882 48.616 273.83 48.616C276.91 48.616 279.286 47.56 281.002 45.404V48H286.678V26H281.002V28.596ZM270.53 41.488C269.386 40.3 268.814 38.804 268.814 37C268.814 35.196 269.386 33.7 270.53 32.556C271.674 31.368 273.126 30.796 274.886 30.796C276.646 30.796 278.098 31.368 279.242 32.556C280.43 33.7 281.002 35.196 281.002 37C281.002 38.804 280.43 40.3 279.242 41.488C278.098 42.632 276.646 43.204 274.886 43.204C273.126 43.204 271.674 42.632 270.53 41.488ZM304.057 25.384C301.065 25.384 298.865 26.396 297.501 28.464V26H291.825V48H297.501V36.12C297.501 32.468 299.393 30.664 302.341 30.664C304.981 30.664 306.697 32.248 306.697 35.196V48H312.373V34.492C312.373 31.632 311.581 29.432 309.997 27.804C308.457 26.176 306.477 25.384 304.057 25.384ZM329.451 25.384C326.459 25.384 324.259 26.396 322.895 28.464V26H317.219V48H322.895V36.12C322.895 32.468 324.787 30.664 327.735 30.664C330.375 30.664 332.091 32.248 332.091 35.196V48H337.767V34.492C337.767 31.632 336.975 29.432 335.391 27.804C333.851 26.176 331.871 25.384 329.451 25.384ZM345.43 23.36C347.366 23.36 348.95 21.776 348.95 19.884C348.95 17.992 347.366 16.364 345.43 16.364C343.538 16.364 341.954 17.992 341.954 19.884C341.954 21.776 343.538 23.36 345.43 23.36ZM348.29 48V26H342.614V48H348.29ZM375.749 25.428C372.537 25.428 370.161 26.66 368.621 29.168V17.2H364.793V48H368.621V36.34C368.621 31.412 371.173 29.08 375.001 29.08C378.389 29.08 380.457 31.148 380.457 34.712V48H384.285V34.492C384.285 28.904 380.897 25.428 375.749 25.428ZM410.749 38.76C410.837 38.188 410.881 37.616 410.881 37.044C410.881 33.832 409.869 31.104 407.801 28.86C405.777 26.572 403.137 25.428 399.925 25.428C396.537 25.428 393.765 26.528 391.609 28.728C389.453 30.928 388.397 33.7 388.397 37C388.397 40.344 389.497 43.116 391.653 45.316C393.853 47.472 396.713 48.572 400.189 48.572C404.501 48.572 407.713 46.9 409.869 43.6L406.613 41.752C405.293 43.908 403.181 44.964 400.277 44.964C396.097 44.964 393.061 42.676 392.313 38.76H410.749ZM399.925 29.036C403.445 29.036 406.349 31.236 407.009 35.416H392.313C392.973 31.544 395.833 29.036 399.925 29.036ZM419.109 26H415.281V48H419.109V36.34C419.109 33.92 419.769 32.204 421.133 31.104C422.497 30.004 424.081 29.52 425.973 29.608V25.604C422.673 25.604 420.385 26.968 419.109 29.696V26ZM449.635 38.76C449.723 38.188 449.767 37.616 449.767 37.044C449.767 33.832 448.755 31.104 446.687 28.86C444.663 26.572 442.023 25.428 438.811 25.428C435.423 25.428 432.651 26.528 430.495 28.728C428.339 30.928 427.283 33.7 427.283 37C427.283 40.344 428.383 43.116 430.539 45.316C432.739 47.472 435.599 48.572 439.075 48.572C443.387 48.572 446.599 46.9 448.755 43.6L445.499 41.752C444.179 43.908 442.067 44.964 439.163 44.964C434.983 44.964 431.947 42.676 431.199 38.76H449.635ZM438.811 29.036C442.331 29.036 445.235 31.236 445.895 35.416H431.199C431.859 31.544 434.719 29.036 438.811 29.036ZM454.826 48.484C456.454 48.484 457.686 47.208 457.686 45.624C457.686 44.04 456.454 42.764 454.826 42.764C453.242 42.764 451.966 44.04 451.966 45.624C451.966 47.208 453.242 48.484 454.826 48.484ZM465.525 48.484C467.153 48.484 468.385 47.208 468.385 45.624C468.385 44.04 467.153 42.764 465.525 42.764C463.941 42.764 462.665 44.04 462.665 45.624C462.665 47.208 463.941 48.484 465.525 48.484ZM476.224 48.484C477.852 48.484 479.084 47.208 479.084 45.624C479.084 44.04 477.852 42.764 476.224 42.764C474.64 42.764 473.364 44.04 473.364 45.624C473.364 47.208 474.64 48.484 476.224 48.484Z" />
  </g>

  <!-- Emoji -->
  <g id="emoji" class="shake">
    <path fill="var(--hand)" d="M150.75 18.1022C150.402 18.1412 150.067 18.2532 149.764 18.431C149.461 18.6089 149.198 18.8488 148.99 19.1357C148.782 19.4226 148.635 19.7503 148.557 20.0983C148.478 20.4463 148.472 20.8071 148.536 21.1579C148.56 21.3615 149.15 25.8533 149.739 28.7091L137.404 16.0962C137.184 15.8713 136.92 15.6962 136.63 15.5821C136.339 15.468 136.029 15.4176 135.718 15.4341C135.407 15.4505 135.104 15.5335 134.826 15.6776C134.549 15.8217 134.304 16.0238 134.108 16.2707C133.766 16.7324 133.602 17.3063 133.647 17.8835C133.692 18.4607 133.942 19.001 134.351 19.4019L141.49 26.7013C141.657 26.8719 141.75 27.1031 141.75 27.3442C141.75 27.5854 141.657 27.8166 141.49 27.987C141.323 28.1574 141.097 28.2531 140.861 28.253C140.625 28.2529 140.399 28.1571 140.232 27.9865L130.49 18.0249C130.271 17.8 130.007 17.6248 129.716 17.5106C129.426 17.3965 129.115 17.3459 128.805 17.3623C128.494 17.3787 128.19 17.4616 127.913 17.6056C127.635 17.7497 127.391 17.9517 127.195 18.1985C126.853 18.6602 126.689 19.2341 126.734 19.8113C126.778 20.3885 127.029 20.9288 127.437 21.3297L137.09 31.1995C137.257 31.3699 137.351 31.6011 137.351 31.8422C137.351 32.0833 137.257 32.3146 137.091 32.4851C136.924 32.6557 136.698 32.7516 136.462 32.7516C136.226 32.7517 136 32.656 135.833 32.4856L126.809 23.2575C126.417 22.8397 125.888 22.5837 125.324 22.5379C124.759 22.4922 124.198 22.6599 123.747 23.0094C123.505 23.21 123.308 23.4602 123.167 23.7438C123.026 24.0275 122.945 24.3382 122.929 24.6559C122.913 24.9736 122.962 25.2911 123.074 25.5881C123.186 25.885 123.357 26.1547 123.577 26.3796L132.69 35.6986C132.852 35.87 132.942 36.0996 132.94 36.3379C132.938 36.5762 132.844 36.8042 132.68 36.9727C132.515 37.1412 132.292 37.2368 132.059 37.2389C131.826 37.2409 131.601 37.1493 131.434 36.9838L125.552 30.9705C125.16 30.5528 124.631 30.2969 124.067 30.2514C123.502 30.2058 122.941 30.3737 122.49 30.7232C122.248 30.9239 122.051 31.1741 121.91 31.4577C121.769 31.7413 121.688 32.0521 121.672 32.3697C121.656 32.6874 121.705 33.005 121.817 33.3019C121.929 33.5989 122.1 33.8685 122.32 34.0935L130.053 42.0009L135.209 47.2726C136.364 48.4543 137.736 49.3917 139.246 50.0313C140.756 50.6708 142.374 51 144.008 51C145.643 51 147.261 50.6708 148.771 50.0313C150.281 49.3917 151.653 48.4543 152.808 47.2726L154.35 45.6947C155.985 44.029 157.133 41.9303 157.665 39.6344C158.198 37.3384 158.093 34.9362 157.364 32.6974C156.062 28.7191 154.213 24.2337 153.327 20.159C153.207 19.5585 152.882 19.0215 152.409 18.6444C151.937 18.2674 151.348 18.0751 150.75 18.1022V18.1022Z" />
    <path fill="#000" fill-opacity="0.25" d="M148.408 41.4783C148.326 41.5628 148.228 41.6298 148.12 41.6756C148.012 41.7213 147.896 41.7449 147.779 41.7449C147.663 41.7449 147.547 41.7213 147.439 41.6756C147.331 41.6298 147.233 41.5628 147.15 41.4783C143.684 37.9336 143.967 31.8803 147.779 27.982C147.862 27.8975 147.96 27.8306 148.068 27.7849C148.176 27.7392 148.291 27.7157 148.408 27.7157C148.525 27.7158 148.641 27.7394 148.749 27.7851C148.856 27.8309 148.955 27.8979 149.037 27.9824C149.12 28.0669 149.185 28.1672 149.23 28.2776C149.275 28.388 149.298 28.5063 149.297 28.6258C149.297 28.7453 149.274 28.8636 149.23 28.9739C149.185 29.0843 149.119 29.1845 149.037 29.269C145.917 32.4583 145.635 37.3582 148.408 40.1949C148.574 40.3653 148.668 40.5961 148.668 40.8366C148.668 41.0772 148.574 41.3079 148.408 41.4783V41.4783Z" />
    <g id="waves" fill="var(--wave)">
      <path d="M148.222 17.3623C148.069 17.3625 147.918 17.3219 147.784 17.2447C147.651 17.1674 147.539 17.0561 147.46 16.9215C146.671 15.6874 145.599 14.6687 144.338 13.9536C143.077 13.2386 141.664 12.8487 140.223 12.8178C139.987 12.8178 139.761 12.7221 139.594 12.5516C139.427 12.3811 139.334 12.15 139.334 11.9089C139.334 11.6678 139.427 11.4367 139.594 11.2662C139.761 11.0958 139.987 11 140.223 11C141.971 11.0336 143.684 11.5058 145.212 12.3751C146.739 13.2444 148.035 14.4841 148.984 15.9853C149.065 16.1232 149.109 16.2807 149.111 16.4415C149.113 16.6024 149.073 16.7609 148.996 16.9009C148.918 17.041 148.806 17.1574 148.67 17.2385C148.534 17.3196 148.38 17.3623 148.222 17.3623V17.3623Z" />
      <path d="M144.667 20.089C144.481 20.0889 144.299 20.0288 144.148 19.9172C143.996 19.8056 143.883 19.6483 143.824 19.4674C143.627 18.881 143.264 18.3677 142.781 17.9929C142.298 17.6181 141.717 17.3986 141.112 17.3623C140.876 17.3623 140.65 17.2666 140.483 17.0961C140.316 16.9257 140.223 16.6945 140.223 16.4534C140.223 16.2124 140.316 15.9812 140.483 15.8107C140.65 15.6403 140.876 15.5445 141.112 15.5445C144.382 15.5445 145.467 18.7557 145.51 18.8929C145.554 19.0295 145.566 19.1749 145.545 19.3172C145.524 19.4595 145.47 19.5946 145.388 19.7114C145.305 19.8282 145.197 19.9233 145.072 19.989C144.946 20.0546 144.808 20.0889 144.667 20.089V20.089Z" />
      <path d="M126.001 47.3562C125.958 47.3563 125.916 47.3533 125.874 47.3471C125.805 47.3371 118.981 46.2564 118.009 39.3051C117.992 39.187 117.999 39.0666 118.028 38.9509C118.057 38.8353 118.108 38.7266 118.177 38.6311C118.247 38.5355 118.335 38.455 118.436 38.3941C118.536 38.3332 118.647 38.2932 118.763 38.2762C118.878 38.2593 118.996 38.2658 119.109 38.2953C119.222 38.3249 119.329 38.377 119.422 38.4485C119.515 38.5201 119.594 38.6098 119.654 38.7125C119.713 38.8152 119.752 38.9288 119.769 39.047C120.549 44.6368 125.902 45.5138 126.129 45.5475C126.352 45.5799 126.554 45.6976 126.695 45.8768C126.837 46.056 126.906 46.2833 126.89 46.5129C126.874 46.7425 126.773 46.9572 126.608 47.1137C126.443 47.2702 126.226 47.3569 126.001 47.3562Z" />
      <path d="M126.001 42.8117C125.905 42.8117 125.81 42.7961 125.72 42.7653C124.777 42.4098 123.92 41.8492 123.209 41.1222C122.498 40.3952 121.95 39.5191 121.603 38.5544C121.566 38.441 121.551 38.3213 121.559 38.2021C121.568 38.0829 121.599 37.9665 121.651 37.8597C121.704 37.7528 121.776 37.6576 121.864 37.5793C121.953 37.5011 122.055 37.4414 122.166 37.4037C122.277 37.366 122.394 37.351 122.511 37.3595C122.627 37.3681 122.741 37.4 122.846 37.4535C122.95 37.507 123.043 37.581 123.12 37.6714C123.196 37.7617 123.255 37.8665 123.292 37.9799C123.55 38.6779 123.95 39.3117 124.466 39.8393C124.983 40.3669 125.603 40.7763 126.285 41.0402C126.486 41.1084 126.656 41.2475 126.766 41.4326C126.875 41.6177 126.916 41.8366 126.882 42.05C126.848 42.2635 126.74 42.4574 126.579 42.597C126.417 42.7366 126.212 42.8127 126.001 42.8117V42.8117Z" />
    </g>
  </g>
</svg>
